# xmcd CD database file
#
# Track frame offsets:
#	150
#	14550
#	25058
#	38247
#	47219
#	64277
#	78072
#	91226
#	102911
#	113458
#	124241
#	140946
#	155084
#	170052
#	182400
#
# Disc length: 2540 seconds
#
# Revision: 0
# Processed by: cddbd v1.5.2PL0 Copyright (c) Steve Scherf et al.
# Submitted via: CDex 1.50
#
DISCID=c809ea0f
DTITLE=The Tumbleweeds - Tumbleweeds
DYEAR=1974
DGENRE=Country-rock
TTITLE0=I Believe In Music
TTITLE1=You're Still On My Mind
TTITLE2=Somewhere Between
TTITLE3=Mojave
TTITLE4=Bobby McGee
TTITLE5=Southern Queen
TTITLE6=Everybody Has His Own Dogs
TTITLE7=Reno
TTITLE8=Lead On Me
TTITLE9=Tumbleweed Polka
TTITLE10=Kentucky Hills Of Tennessee
TTITLE11=Country Girl
TTITLE12=Sing Me Another Love Song
TTITLE13=It Might As Well Have Rained
TTITLE14=Close Up Steel
EXTD=YEAR: 1974
EXTT0=
EXTT1=
EXTT2=
EXTT3=
EXTT4=
EXTT5=
EXTT6=
EXTT7=
EXTT8=
EXTT9=
EXTT10=
EXTT11=
EXTT12=
EXTT13=
EXTT14=
PLAYORDER=
